<svg width="62" height="56" viewBox="0 0 62 56" fill="none" xmlns="http://www.w3.org/2000/svg">
<path d="M61.6071 48.7596L60.539 37.0461C60.3301 34.7314 58.4303 32.9899 56.097 32.9899H54.278C53.9233 31.1302 52.4748 29.7099 50.6539 29.3513V26.3215C51.4856 26.2131 52.2502 25.8073 52.8178 25.1631C53.4582 24.3988 53.7538 23.4098 53.5942 22.4308L52.8 17.2418C52.6956 16.5385 52.0984 16.0381 51.4067 16.0381H48.1018C47.4062 16.0381 46.813 16.5385 46.7085 17.2418L45.9084 22.4308C45.7567 23.4098 46.0424 24.3988 46.6888 25.1631C47.2505 25.8073 48.0132 26.2131 48.8527 26.3215V29.3513C47.0337 29.7099 45.5833 31.1283 45.2246 32.9899H43.3032V22.5174C43.3032 22.0151 42.8932 21.6231 42.3986 21.6231C41.9118 21.6231 41.5 22.0151 41.5 22.5174V24.7593L36.6146 26.4909C36.5673 26.5027 36.5278 26.5027 36.4805 26.4909L31.6168 24.7731V16.6725H41.5019V16.769V18.3312C41.5019 18.8217 41.9138 19.2256 42.4006 19.2256C42.8952 19.2256 43.3051 18.8217 43.3051 18.3312V16.769C43.3051 16.3987 43.2677 16.0421 43.2026 15.6836C43.2026 15.6461 43.2026 15.5988 43.1849 15.5634C42.8775 13.9401 41.9611 12.4626 40.6151 11.4835L39.9017 10.9477C39.884 10.9359 39.8623 10.9241 39.8623 10.9004V1.64543C39.8623 0.774692 39.1489 0.0576172 38.2818 0.0576172H34.8311C33.962 0.0576172 33.2466 0.772722 33.2466 1.64543V10.9004C33.2466 10.926 33.2466 10.9379 33.2348 10.9477L32.5036 11.4835C31.1517 12.4626 30.2905 13.9539 29.9299 15.5634C29.9299 15.5988 29.9122 15.6461 29.9122 15.6836C29.8649 16.0421 29.8294 16.3987 29.8294 16.769V29.0085H27.6734V22.0171C27.6734 21.5521 27.4172 21.1227 27.0054 20.908C26.7019 20.7405 26.3471 20.7031 26.0239 20.8232V13.3432C26.0239 12.7837 25.6456 12.307 25.08 12.1632C24.538 12.0076 23.9567 12.2577 23.6867 12.7463C23.2472 13.5107 22.8393 14.273 22.4274 15.0374C22.1239 14.0938 21.8007 13.3196 21.4755 12.699C21.172 12.1494 20.5887 11.8047 19.9601 11.8047H19.9404C19.2979 11.8047 18.7165 12.1632 18.4308 12.7108C16.5547 16.3002 15.5733 23.0887 16.0108 29.0046H9.03246C8.44125 29.0046 7.9131 29.3848 7.72588 29.9581C7.53472 30.5313 7.72588 31.1499 8.20279 31.5085L10.1577 32.9879H5.90692C3.56965 32.9879 1.66397 34.7294 1.46493 37.0441L1.36048 38.1178C1.31318 38.6063 1.66397 39.0377 2.16059 39.085C2.65524 39.1303 3.10259 38.762 3.14989 38.2734L3.25434 37.2116C3.37061 35.8286 4.51362 34.7905 5.90692 34.7905H56.099C57.4923 34.7905 58.6353 35.8286 58.7516 37.2116L59.8256 48.9251C59.8433 49.0335 59.7901 49.128 59.7093 49.1891C56.9681 50.9424 53.3617 51.5984 50.1297 50.9306V45.0501C50.1297 44.5478 49.7336 44.144 49.2271 44.144C48.7325 44.144 48.3403 44.5478 48.3403 45.0501V51.1689C43.7643 54.2224 36.9594 55.0222 31.9046 52.934V44.4394C31.9046 43.9489 31.4946 43.5451 31.002 43.5451C30.5113 43.5451 30.1033 43.9489 30.1033 44.4394V52.934C25.0504 55.0222 18.2633 54.2204 13.6695 51.1689V45.0501C13.6695 44.5478 13.2793 44.144 12.7827 44.144C12.2703 44.144 11.8782 44.5478 11.8782 45.0501V50.9306C8.64423 51.5984 5.0398 50.9424 2.30248 49.1891C2.21971 49.128 2.16256 49.0335 2.1803 48.9251L2.76166 42.4596C2.80895 41.9711 2.45817 41.5298 1.96155 41.4825C1.4669 41.4451 1.02349 41.8036 0.972253 42.2941L0.396801 48.7577C0.314031 49.5338 0.686499 50.2746 1.33486 50.702C4.56486 52.7666 8.83736 53.4817 12.5935 52.611C17.8356 56.1431 25.4249 56.9055 31.0039 54.5081C36.5889 56.9055 44.1919 56.1293 49.4163 52.611C53.1744 53.4817 57.447 52.7666 60.6789 50.702C61.3214 50.2746 61.6938 49.5338 61.6071 48.7596ZM48.0506 23.9831C47.7432 23.6384 47.6092 23.1616 47.6722 22.6967L48.4231 17.8289H51.0756L51.8245 22.6967C51.8935 23.1616 51.7595 23.6403 51.454 23.9831C51.1466 24.3535 50.7091 24.5446 50.2243 24.5446H49.2705C48.7975 24.5446 48.3561 24.3535 48.0506 23.9831ZM49.7553 31.0692C50.9948 31.0692 52.0472 31.8552 52.4236 32.9899H47.0593C47.4338 31.8571 48.5078 31.0692 49.7553 31.0692ZM35.0498 1.85425H38.0788V5.52827H35.0498V1.85425ZM34.2852 12.4016C34.7601 12.043 35.0498 11.4816 35.0498 10.8965V7.31899H38.0788V10.8965C38.0788 11.4816 38.3567 12.043 38.8237 12.4016C39.2533 12.7601 40.4259 13.2959 41.1097 14.87H32.007C32.7027 13.2959 33.895 12.7463 34.2852 12.4016ZM31.6149 26.6682L35.8854 28.1831C36.3091 28.325 36.7663 28.325 37.2136 28.1831L41.5 26.6682V32.9899H32.3618L34.3325 31.5104C34.8094 31.1519 34.9966 30.5333 34.8094 29.96C34.6241 29.3868 34.094 29.0066 33.4811 29.0066H31.6129V26.6682H31.6149ZM18.5471 29.0046C20.3857 27.1193 22.7979 25.1513 25.8801 23.0158V29.0046H18.5471ZM24.2089 15.5023V21.9915C22.6461 23.1124 21.2529 24.186 20.0054 25.2242C21.0637 22.0269 22.4747 18.7705 24.2089 15.5023ZM19.9561 13.6761C20.3838 14.5351 20.8429 15.8116 21.2509 17.3856C19.7728 20.4746 18.5924 23.5418 17.7135 26.5717C17.6425 21.6566 18.4919 16.576 19.9561 13.6761ZM13.3404 32.9899C13.2183 32.9899 13.0843 32.9426 12.9798 32.8697L10.2445 30.8052H30.7123H30.73H32.2928L29.5377 32.8697C29.4353 32.9406 29.319 32.9899 29.1968 32.9899H13.3404Z" fill="white"/>
</svg>
