<svg xmlns="http://www.w3.org/2000/svg" viewBox="0 0 25 25" id="Navigation"><path d="M12.5 0A12.5 12.5 0 0 0 0 12.5 12.5 12.5 0 0 0 12.5 25 12.5 12.5 0 0 0 25 12.5 12.5 12.5 0 0 0 12.5 0zm0 6c2.755 0 5 2.245 5 5 0 3.835-3.647 7.354-4.646 8.354l-.354.353-.354-.353c-1-1.002-4.646-4.53-4.646-8.354 0-2.755 2.245-5 5-5zm0 1c-2.215 0-4 1.785-4 4 0 2.938 2.792 5.99 4 7.229 1.209-1.239 4-4.28 4-7.229 0-2.215-1.785-4-4-4zm0 2c1.099 0 2 .901 2 2s-.901 2-2 2-2-.901-2-2 .901-2 2-2zm0 1c-.558 0-1 .442-1 1s.442 1 1 1 1-.442 1-1-.442-1-1-1z" fill="#0b486b" class="color000000 svgShape"></path></svg>