<svg width="64" height="56" viewBox="0 0 64 56" fill="none" xmlns="http://www.w3.org/2000/svg">
<path d="M62.9501 46.2989H60.0197V38.9252C60.0197 38.415 59.59 38.0052 59.0836 38.0052C58.5672 38.0052 58.1376 38.415 58.1376 38.9252V46.2989H56.1314V26.4532H58.1376V34.8592C58.1376 35.3832 58.5672 35.8048 59.0836 35.8048C59.59 35.8048 60.0197 35.3812 60.0197 34.8592V26.3173C61.6179 25.7716 62.3747 23.646 61.5095 22.202C62.6624 21.3687 62.9994 19.6154 62.221 18.4078C63.3876 17.2514 63.6044 16.0084 62.8398 14.6905C63.496 14.1802 63.9217 13.3725 63.9217 12.49C63.9217 10.9357 62.6624 9.67881 61.1193 9.67881H53.8651C54.5214 7.26558 54.413 4.75581 53.5301 1.86978C53.1912 0.774468 52.1999 0.0554199 51.0647 0.0554199C49.435 0.216959 48.562 1.12315 48.493 2.76612C48.6506 5.96144 47.2297 7.01735 45.0718 8.62289C44.4983 9.05826 43.8618 9.53106 43.2371 10.0767C43.0656 9.84035 42.7858 9.67881 42.4784 9.67881H39.6385V8.74503C39.6385 8.2348 39.2129 7.81323 38.7025 7.81323H33.3481C32.8317 7.81323 32.4258 8.2348 32.4258 8.74503V11.4695H6.12068C4.91658 11.4695 3.93713 12.4525 3.93713 13.6444V46.2969H1.01456C0.504147 46.2969 0.0784912 46.7185 0.0784912 47.2287V51.6435C0.0784912 53.9917 1.9881 55.8947 4.33325 55.8947H6.70992C7.24398 55.8947 7.65194 55.4849 7.65194 54.9629C7.65194 54.4527 7.24398 54.0291 6.70992 54.0291H4.33325C3.02076 54.0291 1.93884 52.9594 1.93884 51.6415V48.1586H23.3132V51.0938C23.3132 51.6159 23.7211 52.0256 24.2296 52.0256H39.7312C40.2475 52.0256 40.6554 51.6159 40.6554 51.0938V48.1586H55.217H59.0856H62.0278V51.6415C62.0278 52.9594 60.9459 54.0291 59.6334 54.0291H10.7873C10.2769 54.0291 9.84731 54.4527 9.84731 54.9629C9.84731 55.4849 10.2769 55.8947 10.7873 55.8947H59.6334C61.9687 55.8947 63.8882 53.9917 63.8882 51.6435V47.2287C63.8862 46.7205 63.4605 46.2989 62.9501 46.2989ZM46.1853 10.126C48.4398 8.44559 50.5661 6.85582 50.3592 2.66565C50.371 2.2165 50.6075 1.95843 51.0647 1.91903C51.3623 1.91903 51.6461 2.11997 51.7387 2.41744C52.6433 5.38818 52.6433 7.88809 51.7013 10.2737C51.5416 11.0085 51.8471 11.4321 52.5723 11.5444H61.1193C61.6356 11.5444 62.0554 11.966 62.0554 12.488C62.0554 12.9982 61.6356 13.408 61.1193 13.408H58.7939C58.2815 13.408 57.8696 13.8315 57.8696 14.3418C57.8696 14.8638 58.2795 15.2755 58.7939 15.2755H60.4946C60.9912 15.2755 61.4189 15.6971 61.4189 16.2073C61.4189 16.7314 60.9932 17.1411 60.4946 17.1411H58.7939C58.2815 17.1411 57.8696 17.5647 57.8696 18.0749C57.8696 18.5969 58.2795 19.0087 58.7939 19.0087H59.8797C60.3921 19.0087 60.8001 19.4302 60.8001 19.9405C60.8001 20.4507 60.3921 20.8624 59.8797 20.8624H58.179C57.6627 20.8624 57.2548 21.286 57.2548 21.806C57.2548 22.3163 57.6627 22.7398 58.179 22.7398H59.1151C59.6314 22.7398 60.0394 23.1496 60.0394 23.6716C60.0394 24.1818 59.6314 24.5936 59.1151 24.5936H47.3874C47.0898 24.5936 46.81 24.4931 46.5538 24.306C45.527 23.5239 44.4648 23.25 43.4007 23.1378V12.5057C44.3072 11.5306 45.261 10.8096 46.1853 10.126ZM41.5423 24.5877H39.6465V11.5444H41.5423V24.5877ZM37.7605 24.5877H34.2841V9.67881H37.7605V24.5877ZM38.7931 50.166H25.1696V48.1625H38.7931V50.166ZM9.68767 46.2989V17.2022H18.8909C19.4052 17.2022 19.8349 16.7905 19.8349 16.2684C19.8349 15.7582 19.4052 15.3346 18.8909 15.3346H8.74567C8.23526 15.3346 7.82731 15.7582 7.82731 16.2684V46.2969H5.82115V13.6464C5.82115 13.473 5.96107 13.3351 6.11873 13.3351H32.4238V15.3386H22.9703C22.4579 15.3386 22.0283 15.7621 22.0283 16.2724C22.0283 16.7944 22.4579 17.2061 22.9703 17.2061H32.4238V25.5234C32.4238 26.0474 32.8317 26.4572 33.3461 26.4572H42.4764C42.9927 26.4572 43.3987 26.0474 43.3987 25.5234V25.0152C44.2165 25.1274 44.8334 25.3382 45.4206 25.7972C45.9862 26.2188 46.6799 26.4552 47.3854 26.4552H54.2711V46.3009H9.68767V46.2989Z" fill="white"/>
</svg>
